<?xml version="1.0" standalone="no"?>
<!DOCTYPE svg PUBLIC "-//W3C//DTD SVG 20010904//EN"
 "http://www.w3.org/TR/2001/REC-SVG-20010904/DTD/svg10.dtd">
<svg version="1.0" xmlns="http://www.w3.org/2000/svg"
 width="1280.000000pt" height="1280.000000pt" viewBox="0 0 1280.000000 1280.000000"
 preserveAspectRatio="xMidYMid meet">
<metadata>
Created by potrace 1.15, written by Peter Selinger 2001-2017
</metadata>
<g transform="translate(0.000000,1280.000000) scale(0.100000,-0.100000)"
fill="#85bdcc" stroke="none">
<path d="M2670 9639 c-649 -40 -1250 -398 -1565 -934 -190 -322 -275 -673
-262 -1085 11 -354 86 -656 247 -985 173 -357 418 -676 806 -1055 252 -246
345 -323 1230 -1027 302 -240 443 -361 594 -513 175 -175 252 -282 409 -573
74 -136 138 -244 142 -240 4 5 62 109 130 233 183 337 232 404 465 630 171
165 330 299 764 640 331 260 529 420 685 554 846 725 1278 1403 1365 2141 17
142 14 427 -5 564 -92 647 -473 1170 -1057 1451 -292 140 -564 202 -890 202
-417 0 -797 -123 -1107 -357 -90 -69 -244 -218 -321 -313 l-35 -42 -70 86
c-348 429 -914 661 -1525 623z m275 -359 c362 -35 653 -167 891 -404 135 -135
179 -200 316 -471 l116 -230 86 178 c167 347 277 493 497 657 156 116 403 219
614 256 121 21 383 23 500 5 371 -58 670 -206 921 -456 271 -270 410 -577 445
-987 29 -339 -44 -695 -215 -1043 -250 -507 -661 -949 -1495 -1605 -635 -500
-819 -652 -1010 -835 -106 -101 -248 -261 -310 -347 l-33 -47 -71 92 c-92 121
-384 411 -572 568 -82 69 -312 253 -510 409 -198 156 -425 337 -505 403 -871
722 -1270 1285 -1392 1967 -8 48 -13 156 -13 300 0 195 3 240 23 337 57 281
187 543 367 740 330 361 855 561 1350 513z"/>
<path d="M5584 8938 c-242 -269 -400 -611 -460 -1003 -20 -131 -22 -444 -5
-580 47 -362 177 -716 381 -1043 75 -119 232 -332 322 -436 34 -39 65 -75 69
-80 6 -7 125 94 248 210 l24 22 -78 94 c-340 404 -539 806 -600 1213 -67 449
15 860 243 1205 64 96 231 273 321 340 33 25 60 48 61 51 1 20 -252 59 -382
59 l-96 0 -48 -52z"/>
<path d="M7007 9582 c-14 -6 -3 -17 56 -59 100 -69 238 -186 318 -269 63 -66
70 -70 169 -103 294 -96 544 -279 709 -521 34 -49 110 -186 168 -303 l105
-212 107 215 c120 244 180 336 300 463 193 202 448 342 732 401 420 87 890 -5
1245 -242 348 -234 565 -558 654 -977 30 -142 38 -427 16 -592 -54 -408 -235
-800 -554 -1198 -117 -146 -496 -528 -685 -689 -133 -113 -442 -362 -828 -666
-479 -377 -759 -637 -929 -862 l-58 -77 -51 68 c-166 224 -404 448 -865 814
-126 100 -344 274 -485 386 -141 112 -261 205 -268 208 -12 5 -265 -226 -261
-238 4 -11 168 -144 428 -349 613 -481 795 -635 985 -832 167 -172 219 -247
377 -536 71 -130 133 -240 136 -244 4 -4 61 92 127 214 153 281 209 367 333
504 169 188 376 366 892 772 571 449 785 629 1039 877 734 715 1065 1410 1038
2175 -14 381 -112 704 -304 1000 -518 798 -1619 1104 -2478 690 -243 -117
-481 -310 -621 -503 l-20 -29 -56 69 c-284 346 -679 565 -1133 627 -134 18
-314 28 -338 18z"/>
</g>
</svg>
